<svg width="952" height="150" viewBox="0 0 952 150" fill="none" xmlns="http://www.w3.org/2000/svg">
<path d="M-2.37823e-05 104.8H28.6C28.8666 110.8 31.7333 115.333 37.2 118.4C42.8 121.467 49.3333 123 56.8 123C74.6666 123 83.6 117.133 83.6 105.4C83.6 102.333 82.8666 99.6666 81.4 97.3999C80.0666 95.1333 78.5333 93.4666 76.8 92.3999C75.0666 91.1999 72.6 90.1999 69.4 89.3999C66.2 88.5999 63.5333 88.0666 61.4 87.7999C59.4 87.5333 56.6 87.2666 53 87C19 84.0666 1.99998 70.7999 1.99998 47.1999C1.99998 32.6666 7.06664 21.7333 17.2 14.3999C27.3333 6.93328 40 3.19994 55.2 3.19994C62.1333 3.19994 68.6 3.99995 74.6 5.59995C80.7333 7.06661 86.4 9.39994 91.6 12.5999C96.8 15.7999 100.933 20.2666 104 25.9999C107.067 31.5999 108.6 38.1333 108.6 45.5999H80.6C79.8 40.2666 77 36.2666 72.2 33.5999C67.4 30.7999 61.7333 29.3999 55.2 29.3999C48.8 29.3999 43.2 30.9999 38.4 34.2C33.7333 37.2666 31.4 41.3999 31.4 46.5999C31.4 52.1999 33.6666 56.1999 38.2 58.5999C42.8666 60.8666 49.5333 62.4666 58.2 63.3999C66.6 64.1999 73.6666 65.2666 79.4 66.5999C85.2666 67.9333 90.9333 70.0666 96.4 72.9999C102 75.9333 106.2 80.1333 109 85.6C111.8 90.9333 113.2 97.5333 113.2 105.4C113.2 113.267 111.6 120.133 108.4 126C105.2 131.867 100.8 136.4 95.2 139.6C89.7333 142.8 83.8 145.133 77.4 146.6C71.1333 148.2 64.3333 149.067 57 149.2C41.5333 149.2 28.1333 145.4 16.8 137.8C5.59998 130.067 -2.37823e-05 119.067 -2.37823e-05 104.8ZM230.92 146.2H202.72V90.3999C202.987 84.1333 201.32 79.1333 197.72 75.4C194.254 71.6666 189.854 69.7999 184.52 69.7999C178.92 69.7999 174.12 71.7333 170.12 75.5999C166.12 79.3333 164.12 84.4666 164.12 90.9999V146.2H136.12V79.6C136.12 76.6666 136.054 74.5999 135.92 73.3999C135.92 72.1999 135.587 70.9999 134.92 69.7999C134.387 68.5999 133.454 67.8666 132.12 67.5999C130.92 67.1999 129.187 66.9999 126.92 66.9999V49.5999C150.387 45.5999 162.12 49.9333 162.12 62.5999C164.654 57.3999 168.787 53.5999 174.52 51.1999C180.387 48.7999 186.52 47.5999 192.92 47.5999C205.854 47.5999 215.387 51.5333 221.52 59.3999C227.787 67.2666 230.92 77.5999 230.92 90.3999V146.2ZM300.572 47.3999C317.772 47.3999 330.105 52.5999 337.572 62.9999C345.172 73.3999 347.105 86.9999 343.372 103.8H277.972C278.905 117.133 287.439 124.4 303.572 125.6C309.172 125.867 313.439 125.8 316.372 125.4C325.439 124.333 333.105 122.4 339.372 119.6L342.572 140C330.439 145.733 317.972 148.6 305.172 148.6C288.772 148.867 275.439 144.333 265.172 135C255.039 125.667 249.972 112.933 249.972 96.7999C250.239 80.9333 255.239 68.7333 264.972 60.1999C274.839 51.6666 286.705 47.3999 300.572 47.3999ZM300.572 68.7999C294.972 68.7999 290.105 70.3333 285.972 73.3999C281.839 76.3333 279.239 80.4666 278.172 85.7999H320.572C320.839 79.9333 319.039 75.6666 315.172 72.9999C311.305 70.1999 306.439 68.7999 300.572 68.7999ZM427.533 131.4C424.866 137 420.333 141.2 413.933 144C407.666 146.667 401.066 148 394.133 148C384.799 148 376.666 145.267 369.733 139.8C362.933 134.2 359.399 126.867 359.133 117.8C358.599 106.467 361.866 97.8666 368.933 91.9999C375.999 85.9999 385.199 82.9999 396.533 82.9999C407.066 82.9999 415.599 85.0666 422.133 89.1999V82.5999C422.133 73.3999 414.133 68.7999 398.133 68.7999C386.533 68.7999 377.266 70.7333 370.333 74.5999L366.733 54.5999C376.866 49.7999 388.933 47.3999 402.933 47.3999C433.599 47.3999 448.933 59.3999 448.933 83.3999V118.2C448.933 120.867 448.933 122.733 448.933 123.8C449.066 124.867 449.399 126.133 449.933 127.6C450.466 128.933 451.333 129.8 452.533 130.2C453.866 130.6 455.666 130.733 457.933 130.6L458.133 146.2C453.066 147.133 448.266 147.6 443.733 147.6C439.199 147.6 435.333 146.267 432.133 143.6C429.066 140.8 427.533 136.733 427.533 131.4ZM421.533 111.6V106.6C416.066 102.867 409.399 101 401.533 101C396.866 101.267 393.066 102.733 390.133 105.4C387.199 107.933 385.999 111.467 386.533 116C386.799 119.333 388.199 121.933 390.733 123.8C393.266 125.533 396.266 126.4 399.733 126.4C404.933 126.4 409.733 125.133 414.133 122.6C418.666 119.933 421.133 116.267 421.533 111.6ZM504.275 85.1999H511.075C521.342 85.1999 528.542 82.0666 532.675 75.7999C536.808 69.3999 538.875 60.6666 538.875 49.5999H565.275C565.542 60.7999 564.008 70.3999 560.675 78.3999C557.342 86.2666 551.208 92.5333 542.275 97.2L569.875 143.2V146H541.675L518.675 106C516.275 106.8 513.608 107.2 510.675 107.2H504.275V146H476.475V-5.00679e-05H504.275V85.1999ZM657.031 72.3999L713.231 5.79995H724.031V146.2H694.031V70.3999L658.831 114.4H655.031L619.831 70.3999V146.2H589.831V5.79995H600.831L657.031 72.3999ZM813.47 131.4C810.804 137 806.27 141.2 799.87 144C793.604 146.667 787.004 148 780.07 148C770.737 148 762.604 145.267 755.67 139.8C748.87 134.2 745.337 126.867 745.07 117.8C744.537 106.467 747.804 97.8666 754.87 91.9999C761.937 85.9999 771.137 82.9999 782.47 82.9999C793.004 82.9999 801.537 85.0666 808.07 89.1999V82.5999C808.07 73.3999 800.07 68.7999 784.07 68.7999C772.47 68.7999 763.204 70.7333 756.27 74.5999L752.67 54.5999C762.804 49.7999 774.87 47.3999 788.87 47.3999C819.537 47.3999 834.87 59.3999 834.87 83.3999V118.2C834.87 120.867 834.87 122.733 834.87 123.8C835.004 124.867 835.337 126.133 835.87 127.6C836.404 128.933 837.27 129.8 838.47 130.2C839.804 130.6 841.604 130.733 843.87 130.6L844.07 146.2C839.004 147.133 834.204 147.6 829.67 147.6C825.137 147.6 821.27 146.267 818.07 143.6C815.004 140.8 813.47 136.733 813.47 131.4ZM807.47 111.6V106.6C802.004 102.867 795.337 101 787.47 101C782.804 101.267 779.004 102.733 776.07 105.4C773.137 107.933 771.937 111.467 772.47 116C772.737 119.333 774.137 121.933 776.67 123.8C779.204 125.533 782.204 126.4 785.67 126.4C790.87 126.4 795.67 125.133 800.07 122.6C804.604 119.933 807.07 116.267 807.47 111.6ZM902.612 112.2H902.012L890.612 131.4L880.212 146.2H852.212V143L885.612 94.9999L857.012 52.7999V49.7999H883.812L892.412 62.3999L901.612 78.5999H902.212L911.212 62.1999L919.612 49.7999H948.212V52.9999L918.612 95.9999L951.212 143V146.2H924.212L913.412 130.6L902.612 112.2Z" fill="white" fill-opacity="0.12"/>
</svg>
