<svg width="44" height="44" viewBox="0 0 44 44" fill="none" xmlns="http://www.w3.org/2000/svg">
<path fill-rule="evenodd" clip-rule="evenodd" d="M0 21.8862C0 9.79879 9.84974 0 22 0C34.1503 0 44 9.79879 44 21.8862C44 33.9736 34.1503 43.7724 22 43.7724C9.84974 43.7724 0 33.9736 0 21.8862Z" fill="#0E5A4C"/>
<path fill-rule="evenodd" clip-rule="evenodd" d="M23.1508 29.069C23.1508 29.069 23.5743 29.0231 23.7912 28.7955C23.9898 28.5871 23.9829 28.1937 23.9829 28.1937C23.9829 28.1937 23.9565 26.3567 24.8299 26.0854C25.6908 25.8187 26.796 27.8619 27.9691 28.6476C28.8551 29.2416 29.5277 29.1116 29.5277 29.1116L32.6622 29.069C32.6622 29.069 34.3012 28.9704 33.5242 27.7117C33.4599 27.6086 33.0708 26.7803 31.1942 25.0789C29.2281 23.298 29.4921 23.586 31.8588 20.5049C33.3004 18.6287 33.8766 17.4832 33.6964 16.9935C33.5253 16.525 32.4648 16.6494 32.4648 16.6494L28.9366 16.6707C28.9366 16.6707 28.6749 16.6359 28.481 16.7491C28.2916 16.8601 28.1688 17.119 28.1688 17.119C28.1688 17.119 27.611 18.5704 26.8661 19.8056C25.2948 22.4103 24.667 22.5482 24.4099 22.3868C23.8119 22.0091 23.9611 20.8714 23.9611 20.0633C23.9611 17.5382 24.3536 16.4857 23.1978 16.2134C22.8145 16.1226 22.5321 16.0632 21.5508 16.0531C20.2917 16.0408 19.2266 16.0576 18.6229 16.3456C18.2212 16.5373 17.9113 16.9654 18.1007 16.9901C18.3336 17.0204 18.8616 17.1291 19.1417 17.5012C19.5032 17.982 19.4906 19.0602 19.4906 19.0602C19.4906 19.0602 19.6983 22.0326 19.0051 22.4013C18.5299 22.6546 17.878 22.1379 16.4766 19.7742C15.7592 18.5637 15.2175 17.2255 15.2175 17.2255C15.2175 17.2255 15.113 16.9755 14.926 16.841C14.6999 16.6785 14.3842 16.6281 14.3842 16.6281L11.0316 16.6494C11.0316 16.6494 10.5278 16.6628 10.343 16.8769C10.1788 17.0663 10.3303 17.4597 10.3303 17.4597C10.3303 17.4597 12.9553 23.4571 15.9279 26.48C18.6539 29.2506 21.7482 29.069 21.7482 29.069H23.1508Z" fill="white"/>
</svg>
